<svg width="20" height="20" viewBox="0 0 20 20" fill="none" xmlns="http://www.w3.org/2000/svg">
<path d="M7.77778 19H12.2222C15.3433 19 16.9038 19 18.0248 18.2646C18.51 17.9462 18.9267 17.5371 19.251 17.0607C20 15.9601 20 14.4279 20 11.3636C20 8.29936 20 6.76721 19.251 5.6666C18.9267 5.19014 18.51 4.78104 18.0248 4.46268C17.3044 3.99013 16.4027 3.82123 15.022 3.76086C14.3631 3.76086 13.7959 3.27068 13.6667 2.63636C13.4728 1.68489 12.6219 1 11.6337 1H8.36634C7.37805 1 6.52715 1.68489 6.33333 2.63636C6.20412 3.27068 5.63685 3.76086 4.978 3.76086C3.59733 3.82123 2.69555 3.99013 1.97524 4.46268C1.48995 4.78104 1.07328 5.19014 0.749024 5.6666C0 6.76721 0 8.29936 0 11.3636C0 14.4279 0 15.9601 0.749024 17.0607C1.07328 17.5371 1.48995 17.9462 1.97524 18.2646C3.09624 19 4.65675 19 7.77778 19Z" fill="#606D75"/>
<path fill-rule="evenodd" clip-rule="evenodd" d="M10 8.90909C8.61929 8.90909 7.5 10.008 7.5 11.3636C7.5 12.7192 8.61929 13.8182 10 13.8182C11.3807 13.8182 12.5 12.7192 12.5 11.3636C12.5 10.008 11.3807 8.90909 10 8.90909ZM5.83333 11.3636C5.83333 9.10429 7.69881 7.27273 10 7.27273C12.3012 7.27273 14.1667 9.10429 14.1667 11.3636C14.1667 13.623 12.3012 15.4545 10 15.4545C7.69881 15.4545 5.83333 13.623 5.83333 11.3636Z" fill="#EEF0F1"/>
<path fill-rule="evenodd" clip-rule="evenodd" d="M14.7222 8.09091C14.7222 7.63904 15.0953 7.27273 15.5556 7.27273H16.6667C17.1269 7.27273 17.5 7.63904 17.5 8.09091C17.5 8.54278 17.1269 8.90909 16.6667 8.90909H15.5556C15.0953 8.90909 14.7222 8.54278 14.7222 8.09091Z" fill="#EEF0F1"/>
</svg>
