<svg width="22" height="20" viewBox="0 0 22 20" fill="none" xmlns="http://www.w3.org/2000/svg">
<path fill-rule="evenodd" clip-rule="evenodd" d="M6.34843 2.23666C6.61525 0.926782 7.78088 0 9.11634 0H12.3837C13.7191 0 14.8847 0.926782 15.1516 2.23666C15.2132 2.53904 15.4871 2.76086 15.772 2.76086H15.7884L15.8048 2.76157C17.2082 2.82294 18.2862 2.99517 19.1862 3.58558C19.7532 3.95757 20.2409 4.43617 20.621 4.99464C21.0939 5.68947 21.3024 6.48694 21.4024 7.45145C21.5 8.39379 21.5 9.575 21.5 11.0711V11.1562C21.5 12.6523 21.5 13.8335 21.4024 14.7758C21.3024 15.7403 21.0939 16.5378 20.621 17.2326C20.2409 17.7911 19.7532 18.2697 19.1862 18.6417C18.4827 19.1032 17.6762 19.3067 16.698 19.4044C15.7403 19.5 14.539 19.5 13.0134 19.5H8.48657C6.96098 19.5 5.75967 19.5 4.80196 19.4044C3.82379 19.3067 3.01731 19.1032 2.31385 18.6417C1.74682 18.2697 1.25905 17.7911 0.878989 17.2326C0.406118 16.5378 0.197556 15.7403 0.0976219 14.7758C-1.54525e-05 13.8335 -8.5964e-06 12.6523 1.65487e-07 11.1562V11.0711C-8.5964e-06 9.575 -1.54525e-05 8.39379 0.0976219 7.45145C0.197555 6.48694 0.406118 5.68947 0.878989 4.99464C1.25905 4.43617 1.74682 3.95757 2.31385 3.58558C3.21383 2.99517 4.2918 2.82294 5.69523 2.76157L5.71161 2.76086H5.728C6.01288 2.76086 6.28683 2.53905 6.34843 2.23666ZM9.11634 1.5C8.47522 1.5 7.93905 1.94299 7.81824 2.53607C7.62258 3.49659 6.771 4.25186 5.74633 4.26078C4.39772 4.32069 3.67536 4.48636 3.13664 4.83978C2.73309 5.10452 2.38752 5.4441 2.11906 5.83857C1.84291 6.24435 1.67696 6.76325 1.58963 7.60604C1.50094 8.46207 1.5 9.5656 1.5 11.1136C1.5 12.6617 1.50094 13.7652 1.58963 14.6212C1.67696 15.464 1.84291 15.9829 2.11906 16.3887C2.38752 16.7832 2.73309 17.1228 3.13664 17.3875C3.55417 17.6614 4.08844 17.8256 4.95104 17.9118C5.82549 17.9991 6.95193 18 8.52778 18H12.9722C14.5481 18 15.6745 17.9991 16.549 17.9118C17.4116 17.8256 17.9458 17.6614 18.3634 17.3875C18.7669 17.1228 19.1125 16.7832 19.3809 16.3887C19.6571 15.9829 19.823 15.464 19.9104 14.6212C19.9991 13.7652 20 12.6617 20 11.1136C20 9.5656 19.9991 8.46207 19.9104 7.60604C19.823 6.76325 19.6571 6.24435 19.3809 5.83857C19.1125 5.4441 18.7669 5.10452 18.3634 4.83978C17.8246 4.48636 17.1023 4.32069 15.7537 4.26078C14.729 4.25186 13.8774 3.49659 13.6818 2.53607C13.5609 1.94299 13.0248 1.5 12.3837 1.5H9.11634ZM10.75 8.5C9.50736 8.5 8.5 9.50736 8.5 10.75C8.5 11.9926 9.50736 13 10.75 13C11.9926 13 13 11.9926 13 10.75C13 9.50736 11.9926 8.5 10.75 8.5ZM7 10.75C7 8.67893 8.67893 7 10.75 7C12.8211 7 14.5 8.67893 14.5 10.75C14.5 12.8211 12.8211 14.5 10.75 14.5C8.67893 14.5 7 12.8211 7 10.75Z" fill="#EEF0F1"/>
</svg>
