<svg width="24" height="24" viewBox="0 0 24 24" fill="none" xmlns="http://www.w3.org/2000/svg">
<path fill-rule="evenodd" clip-rule="evenodd" d="M8.49717 1.44645C4.49107 1.44645 1.24349 4.68444 1.24349 8.67869C1.24349 12.673 4.49107 15.9109 8.49717 15.9109C12.5033 15.9109 15.7509 12.673 15.7509 8.67869C15.7509 4.68444 12.5033 1.44645 8.49717 1.44645ZM0 8.67869C0 3.99971 3.80431 0 8.49717 0C13.19 0 16.9943 3.99971 16.9943 8.67869C16.9943 10.7951 16.216 12.7302 14.9292 14.215L22 20.5151C22.2428 20.7572 22.4856 20.9971 22.2428 21.2392C22 21.4813 21.5 21.5151 21 21.0151L14.0499 15.0917C12.5607 16.3747 10.6198 17.1508 8.49717 17.1508C3.80431 17.1508 0 13.3577 0 8.67869Z" fill="#EEF0F1"/>
</svg>
