<svg width="24" height="24" viewBox="0 0 24 24" fill="none" xmlns="http://www.w3.org/2000/svg">
<path d="M2.5 11.5V12.5C2.5 15.7875 2.5 15.4312 3.40796 16.5376C3.57418 16.7401 3.75989 16.9258 3.96243 17.092C5.06878 18 6.21251 18 9.49999 18C12.7875 18 15.4419 18 16.5482 17.092C16.7508 16.9258 16.9365 16.7401 17.1027 16.5376C17.8043 15.6827 18 15 18 14.5L18.669 14.8292C20.6149 15.8021 20.5772 16.2886 21.2886 15.8489C22 15.4093 22 14.3215 22 12.1459V11.8541C22 9.67853 22 8.59075 21.2886 8.15107C20.5772 7.7114 20.6149 8.19788 18.669 9.17082L18 9.50002C18 9 17.8043 8.3173 17.1027 7.46243C16.9365 7.25989 16.7508 7.07418 16.5482 6.90796C15.4419 6 12.7875 6 9.49999 6C6.21251 6 5.06878 6 3.96243 6.90796C3.75989 7.07418 3.57418 7.25989 3.40796 7.46243C2.5 8.56878 2.5 8.21252 2.5 11.5Z" fill="#EEF0F1"/>
</svg>
